<?xml version="1.0" encoding="UTF-8" standalone="no"?>
<!-- Generator: Adobe Illustrator 16.0.0, SVG Export Plug-In . SVG Version: 6.00 Build 0)  -->

<svg
   xmlns:dc="http://purl.org/dc/elements/1.1/"
   xmlns:cc="http://creativecommons.org/ns#"
   xmlns:rdf="http://www.w3.org/1999/02/22-rdf-syntax-ns#"
   xmlns:svg="http://www.w3.org/2000/svg"
   xmlns="http://www.w3.org/2000/svg"
   xmlns:sodipodi="http://sodipodi.sourceforge.net/DTD/sodipodi-0.dtd"
   xmlns:inkscape="http://www.inkscape.org/namespaces/inkscape"
   version="1.1"
   id="Layer_1"
   x="0px"
   y="0px"
   width="64px"
   height="64px"
   viewBox="0 0 64 64"
   enable-background="new 0 0 64 64"
   xml:space="preserve"
   sodipodi:docname="set.svg"
   inkscape:version="0.92.4 5da689c313, 2019-01-14"><metadata
   id="metadata96023"><rdf:RDF><cc:Work
       rdf:about=""><dc:format>image/svg+xml</dc:format><dc:type
         rdf:resource="http://purl.org/dc/dcmitype/StillImage" /></cc:Work></rdf:RDF></metadata><defs
   id="defs96021" /><sodipodi:namedview
   pagecolor="#ffffff"
   bordercolor="#666666"
   borderopacity="1"
   objecttolerance="10"
   gridtolerance="10"
   guidetolerance="10"
   inkscape:pageopacity="0"
   inkscape:pageshadow="2"
   inkscape:window-width="1336"
   inkscape:window-height="698"
   id="namedview96019"
   showgrid="false"
   inkscape:snap-bbox="true"
   inkscape:bbox-paths="true"
   inkscape:snap-bbox-edge-midpoints="true"
   inkscape:object-paths="true"
   inkscape:snap-intersection-paths="true"
   inkscape:snap-midpoints="true"
   inkscape:snap-smooth-nodes="true"
   inkscape:snap-bbox-midpoints="true"
   inkscape:bbox-nodes="true"
   inkscape:snap-global="true"
   showguides="true"
   inkscape:guide-bbox="true"
   inkscape:zoom="5.6568543"
   inkscape:cx="6.9432909"
   inkscape:cy="34.413831"
   inkscape:window-x="15"
   inkscape:window-y="35"
   inkscape:window-maximized="0"
   inkscape:current-layer="Layer_1" />
<g
   id="Speech_x5F_Balloon_x5F_Empty">
	<g
   id="g96002">
		<path
   fill="#A2ACB3"
   d="M60.844,1H41.156C39.968,1,39,1.925,39,3.062v19.666c0,0.598,0.233,1.161,0.661,1.59    c0.427,0.426,0.992,0.66,1.59,0.66c0.601,0,1.165-0.234,1.581-0.65l4.948-4.778c0.354-0.354,0.825-0.55,1.325-0.55h11.738    C62.032,19,63,18.075,63,16.938V3.062C63,1.925,62.032,1,60.844,1z M61.5,16.938c0,0.311-0.295,0.562-0.656,0.562H49.105    c-0.9,0-1.749,0.352-2.376,0.979l-4.948,4.779c-0.286,0.284-0.773,0.285-1.06-0.001c-0.144-0.146-0.221-0.329-0.221-0.529    L40.501,10H40.5V3.062c0-0.311,0.294-0.562,0.656-0.562h19.688c0.361,0,0.656,0.252,0.656,0.562V16.938z"
   id="path96000" />
	</g>
</g>

<g
   id="Speech_x5F_Balloon_x5F_Empty_2_">
	<g
   id="g96011">
		<path
   fill="#36D0AE"
   d="M60.844,38H41.156C39.968,38,39,38.926,39,40.062v19.666c0,0.598,0.233,1.161,0.661,1.59    c0.427,0.426,0.992,0.66,1.59,0.66c0.601,0,1.165-0.234,1.581-0.65l4.948-4.778c0.354-0.354,0.825-0.55,1.325-0.55h11.738    C62.032,56,63,55.075,63,53.938V40.062C63,38.926,62.032,38,60.844,38z M61.5,53.938c0,0.311-0.295,0.562-0.656,0.562H49.105    c-0.9,0-1.749,0.352-2.376,0.979l-4.948,4.779c-0.286,0.284-0.773,0.285-1.06-0.001c-0.144-0.146-0.221-0.329-0.221-0.529    L40.501,47H40.5v-6.938c0-0.311,0.294-0.562,0.656-0.562h19.688c0.361,0,0.656,0.252,0.656,0.562V53.938z"
   id="path96009" />
	</g>
</g>

<path
   style="fill:none;stroke:#a2acb3;stroke-width:1px;stroke-linecap:butt;stroke-linejoin:round;stroke-opacity:1"
   d="M 3.5364715,10.826553 13.926496,1.048758 23.953768,10.826553 h -5.525299 l -0.197332,14.10267 H 9.3511912 l 0.07893,-14.10267 z"
   id="path96043"
   inkscape:connector-curvature="0"
   sodipodi:nodetypes="cccccccc" /><path
   sodipodi:nodetypes="cccccccc"
   inkscape:connector-curvature="0"
   id="path96053"
   d="m 3.5364715,47.826553 10.3900245,-9.777795 10.027272,9.777795 h -5.525299 l -0.197332,14.10267 H 9.3511912 l 0.07893,-14.10267 z"
   style="fill:none;stroke:#36d0ae;stroke-width:1px;stroke-linecap:butt;stroke-linejoin:round;stroke-opacity:1" /></svg>